<?xml version="1.0" ?><svg xmlns="http://www.w3.org/2000/svg" xmlns:xlink="http://www.w3.org/1999/xlink" version="1.1" viewBox="0 0 478.288 510" style="enable-background:new 0 0 478.288 510;" xml:space="preserve"><g id="_x31_8_x2C__Lotus_x2C__wellness_x2C__flower_x2C__yoga_x2C__blossom_x2C__chakra_x2C__garden_x2C__ecology_and_environment"><g><g><g><path style="fill:#283954;" d="M475.688,278.402l-12.239-13.46c-17.285-19.009-39.34-32.986-63.778-40.42      c-5.282-1.604-10.869,1.374-12.478,6.657c-1.608,5.284,1.373,10.87,6.657,12.477c20.99,6.385,39.94,18.397,54.802,34.74      l5.511,6.061l-22.54,20.492c-49.913,45.384-127.452,41.697-172.844-8.218l-9.849-10.83V280c0-5.522-4.478-10-10-10      c-5.522,0-10,4.478-10,10v5.767l-26.458,24.054c-50.03,45.497-127.342,41.826-172.841-8.216l-5.507-6.062l22.544-20.496      c12.577-11.439,27.059-19.976,43.041-25.373c5.233-1.768,8.042-7.441,6.275-12.674c-1.768-5.233-7.442-8.039-12.674-6.275      c-18.613,6.286-35.469,16.221-50.098,29.525l-29.94,27.22c-4.086,3.715-4.388,10.037-0.675,14.124l12.232,13.463      c52.922,58.207,142.876,62.505,201.095,9.562l13.004-11.822V500c0,5.522,4.478,10,10,10c5.522,0,10-4.478,10-10V315.355      c53.592,53.352,140.09,55.36,196.146,4.394l29.939-27.22C479.099,288.818,479.403,282.488,475.688,278.402z"/><path style="fill:#283954;" d="M111.745,137.139c5.399-1.157,8.84-6.474,7.683-11.874c-5.471-25.531-7.864-49.583-8.859-62.985      c14.351,1.068,40.927,3.751,68.56,10.12c-12.915,21.033-24.454,44.563-29.362,67.157c-1.172,5.398,2.253,10.723,7.649,11.896      c5.402,1.175,10.723-2.253,11.895-7.649c9.967-45.884,52.373-98.736,69.582-118.735c17.24,20.019,59.738,72.958,69.63,118.945      c1.009,4.691,5.155,7.899,9.767,7.899c6.376,0,11.125-5.879,9.786-12.104c-4.876-22.67-16.452-46.296-29.416-67.407      c27.602-6.357,54.199-9.045,68.56-10.118c-0.995,13.412-3.391,37.481-8.868,63.021c-1.333,6.216,3.407,12.099,9.787,12.099      c4.613,0,8.762-3.212,9.768-7.905c8.648-40.32,9.907-76.038,9.956-77.538c0.193-5.819-4.601-10.524-10.325-10.323      c-1.921,0.063-45.393,1.625-90.473,12.982c-19.876-28.86-39.384-49.86-40.875-51.453C244.299,1.145,241.655,0,238.89,0      c-2.767,0-5.41,1.146-7.301,3.166c-1.489,1.591-20.993,22.591-40.867,51.451c-45.072-11.356-88.55-12.918-90.471-12.981      c-5.77-0.201-10.517,4.547-10.325,10.323c0.049,1.499,1.308,37.187,9.945,77.497      C101.032,134.874,106.365,138.292,111.745,137.139z"/></g><g><path style="fill:#DA5461;" d="M426.645,116.67h-43.9c-65.51,0-121.562,41.226-143.6,99.091      c-22.038-57.865-78.09-99.091-143.6-99.091h-43.9c-5.522,0-10,4.478-10,10V146.4c0,54.838,28.902,103.781,73.488,131.078      c4.712,2.885,10.867,1.402,13.75-3.307c2.884-4.71,1.403-10.866-3.307-13.75c-40.032-24.51-63.932-67.134-63.932-114.021v-9.73      h33.9c73.667,0,133.6,59.928,133.6,133.59V280h-33.9c-12.095,0-24.087-1.615-35.643-4.801c-5.324-1.464-10.83,1.66-12.298,6.983      c-1.468,5.324,1.659,10.83,6.983,12.298c13.287,3.662,27.066,5.52,40.957,5.52c10.674,0,77.1,0,87.801,0      c14.621,0,29.07-2.049,42.945-6.089c5.303-1.545,8.35-7.095,6.806-12.397c-1.545-5.303-7.098-8.349-12.397-6.806      C308.341,278.22,295.773,280,283.045,280h-33.9v-9.74c0-73.662,59.933-133.59,133.6-133.59h33.9v9.73      c0,46.145-23.33,88.415-62.407,113.072c-4.67,2.947-6.067,9.123-3.12,13.793c2.946,4.671,9.123,6.067,13.793,3.121      c44.918-28.343,71.734-76.935,71.734-129.986V126.67C436.645,121.147,432.167,116.67,426.645,116.67z"/></g></g></g></g><g id="Layer_1"/></svg>